PathFileType	4	(X/Y/Z)	/Users/itak/Documents/Research/Walk-IL/dataset/trc/00128_00007.trc
DataRate	CameraRate	NumFrames	NumMarkers	Units	OrigDataRate	OrigDataStartFrame	OrigNumFrames
100.000000	100.000000	4	53	mm	100.000000	767	877
Frame#	Time	RPSI			LPSI			L3			STRN			T10			C7			CLAV			RBAK			LBAK			LSHO			LUPA			LAEL			LAOL			LWTS			LWPS			LFRA			LIFD			LHPS			LHTS			RSHO			RUPA			RAEL			RAOL			RWTS			RWPS			RFRA			RIFD			RHTS			RHPS			RBHD			LFHD			RFHD			LBHD			LHIP			RHIP			RASI			LASI			LKNE			LTHI			LANK			LTIP			LTOE			LMT1			LMT5			LHEE			RKNE			RTHI			RANK			RTIP			RTOE			RMT1			RMT5			RHEE			
		X1	Y1	Z1	X2	Y2	Z2	X3	Y3	Z3	X4	Y4	Z4	X5	Y5	Z5	X6	Y6	Z6	X7	Y7	Z7	X8	Y8	Z8	X9	Y9	Z9	X10	Y10	Z10	X11	Y11	Z11	X12	Y12	Z12	X13	Y13	Z13	X14	Y14	Z14	X15	Y15	Z15	X16	Y16	Z16	X17	Y17	Z17	X18	Y18	Z18	X19	Y19	Z19	X20	Y20	Z20	X21	Y21	Z21	X22	Y22	Z22	X23	Y23	Z23	X24	Y24	Z24	X25	Y25	Z25	X26	Y26	Z26	X27	Y27	Z27	X28	Y28	Z28	X29	Y29	Z29	X30	Y30	Z30	X31	Y31	Z31	X32	Y32	Z32	X33	Y33	Z33	X34	Y34	Z34	X35	Y35	Z35	X36	Y36	Z36	X37	Y37	Z37	X38	Y38	Z38	X39	Y39	Z39	X40	Y40	Z40	X41	Y41	Z41	X42	Y42	Z42	X43	Y43	Z43	X44	Y44	Z44	X45	Y45	Z45	X46	Y46	Z46	X47	Y47	Z47	X48	Y48	Z48	X49	Y49	Z49	X50	Y50	Z50	X51	Y51	Z51	X52	Y52	Z52	X53	Y53	Z53	

768	7.67	551.060302734375	1129.841918945312	895.22705078125	601.34130859375	1131.802001953125	1019.84814453125	583.005859375	1162.809936523438	957.1470947265625	388.2539672851562	1367.507080078125	1037.735595703125	624.9151611328125	1310.409301757812	942.9570922851562	606.9141845703125	1602.755737304688	966.8650512695312	429.385986328125	1501.214111328125	1026.8759765625	618.9738159179688	1417.509887695312	866.8417358398438	649.5337524414062	1581.939575195312	1058.75341796875	594.2871704101562	1571.650268554688	1154.312866210938	636.5432739257812	1438.931274414062	1211.555297851562	627.6324462890625	1221.352783203125	1239.514892578125	660.1968383789062	1204.970947265625	1159.724243164062	498.6495971679688	974.4813232421875	1256.054809570312	580.1575927734375	940.9300537109375	1242.607666015625	607.2605590820312	1106.951049804688	1254.11083984375	459.26953125	783.7605590820312	1246.681884765625	547.8842163085938	869.1840209960938	1259.044555664062	482.307861328125	887.0048828125	1276.242919921875	488.4029235839844	1585.3046875	818.5211181640625	479.6736145019531	1512.076416015625	752.9248046875	476.2071228027344	1217.150146484375	730.989990234375	516.8602294921875	1215.523071289062	818.484375	337.7978515625	979.2685546875	794.6002807617188	397.453125	959.7412719726562	740.0259399414062	446.3149108886719	1144.5947265625	725.2886962890625	317.9161376953125	785.5178833007812	822.9824829101562	305.7596435546875	870.9271240234375	801.0655517578125	357.7121887207031	861.4210815429688	749.3580322265625	554.7299194335938	1778.94970703125	909.274658203125	430.9246215820312	1846.164428710938	1079.981079101562	395.49462890625	1848.205810546875	954.6077270507812	597.1154174804688	1781.922973632812	1036.830810546875	553.398681640625	1043.724975585938	1153.468505859375	389.3523559570312	1033.550659179688	832.0927734375	334.205078125	1108.827270507812	911.7679443359375	439.1457214355469	1109.713134765625	1155.65771484375	520.9344482421875	541.3570556640625	1130.480224609375	552.2709350585938	688.400390625	1147.995971679688	610.255615234375	39.64108657836914	1073.364868164062	619.8862915039062	295.9686889648438	1111.923583984375	376.2049865722656	40.50463485717773	1118.978271484375	435.6370849609375	45.52930450439453	1053.418579101562	507.623046875	41.19433212280273	1147.200073242188	646.803955078125	39.04268646240234	988.6746826171875	421.9699401855469	540.9566040039062	864.6461791992188	380.355224609375	821.7620849609375	846.0621948242188	524.6133422851562	30.6907787322998	857.758544921875	443.9225158691406	408.4801635742188	847.466796875	329.1376953125	47.14432907104492	991.8621826171875	401.7441101074219	37.56029510498047	1009.636596679688	392.0722045898438	41.42208480834961	886.9281616210938	596.0833740234375	32.77649307250977	879.7657470703125	
769	7.68	551.1998291015625	1129.849243164062	895.00048828125	601.417724609375	1131.819213867188	1019.645874023438	583.1268920898438	1162.832763671875	956.9239501953125	388.3450012207031	1367.493896484375	1037.499755859375	624.9327392578125	1310.47216796875	942.7686157226562	606.8472290039062	1602.8037109375	966.6282958984375	429.4011535644531	1501.226318359375	1026.615356445312	619.0208129882812	1417.556640625	866.6244506835938	649.4147338867188	1581.999877929688	1058.539916992188	594.1735229492188	1571.709838867188	1154.07958984375	636.4564819335938	1438.975708007812	1211.325561523438	627.6062622070312	1221.34521484375	1239.239501953125	660.2706909179688	1205.107788085938	1159.455078125	499.7360534667969	973.8089599609375	1255.24853515625	581.4168701171875	940.7106323242188	1241.866821289062	607.6168212890625	1106.856323242188	1253.656982421875	461.435791015625	782.7465209960938	1245.452880859375	549.5595092773438	868.77001953125	1258.11279296875	483.8283081054688	886.1763305664062	1275.221923828125	488.4137268066406	1585.319213867188	818.2393188476562	479.7080993652344	1512.087646484375	752.6600341796875	476.2156677246094	1217.12744140625	730.7416381835938	516.9063720703125	1215.507568359375	818.2349853515625	337.4280700683594	979.4849853515625	794.5833129882812	397.0444946289062	959.8314819335938	740.0204467773438	446.2472534179688	1144.5947265625	725.0870971679688	317.091552734375	785.8410034179688	823.0927734375	305.1139526367188	871.27978515625	801.0537719726562	357.0919189453125	861.5838623046875	749.4456787109375	554.6243896484375	1778.967041015625	909.0465087890625	430.7974548339844	1846.192749023438	1079.681762695312	395.3633422851562	1848.200439453125	954.3345336914062	596.9798583984375	1781.96142578125	1036.6005859375	553.52392578125	1043.769409179688	1153.2470703125	389.4733581542969	1033.531494140625	831.849609375	334.332763671875	1108.769775390625	911.5277099609375	439.2730407714844	1109.745483398438	1155.411376953125	520.892333984375	541.378662109375	1130.43310546875	552.3123779296875	688.4226684570312	1147.8720703125	610.2587280273438	39.64132690429688	1073.35791015625	619.8408813476562	295.9555053710938	1111.836547851562	376.2222595214844	40.51594924926758	1118.981689453125	435.6487426757812	45.53173446655273	1053.417846679688	507.6167602539062	41.20019912719727	1147.186401367188	646.8043212890625	39.0347900390625	988.6744384765625	422.0513610839844	540.9618530273438	864.4458618164062	380.4685668945312	821.692626953125	845.8606567382812	524.609619140625	30.66532135009766	857.7420654296875	443.9374389648438	408.4341735839844	847.3291625976562	329.1498107910156	47.16442108154297	991.8434448242188	401.7687377929688	37.61492919921875	1009.632202148438	392.0807495117188	41.42292785644531	886.9219970703125	596.0868530273438	32.75389862060547	879.7438354492188	
770	7.69	551.3530883789062	1129.853271484375	894.7704467773438	601.4966430664062	1131.833984375	1019.444519042969	583.24267578125	1162.851684570312	956.7025756835938	388.4457397460938	1367.487670898438	1037.269165039062	624.9432983398438	1310.532958984375	942.5790405273438	606.7913818359375	1602.849975585938	966.3834228515625	429.441650390625	1501.238525390625	1026.361328125	619.0601806640625	1417.603393554688	866.3973388671875	649.3175048828125	1582.059326171875	1058.313232421875	594.093017578125	1571.767700195312	1153.835815429688	636.4032592773438	1439.019165039062	1211.08251953125	627.625244140625	1221.339721679688	1238.947143554688	660.3675537109375	1205.24755859375	1159.168579101562	500.8995056152344	973.1351318359375	1254.476684570312	582.7433471679688	940.4976196289062	1241.130126953125	608.0306396484375	1106.760986328125	1253.196044921875	463.6752624511719	781.7632446289062	1244.26416015625	551.310791015625	868.3612060546875	1257.195922851562	485.4264831542969	885.3401489257812	1274.219848632812	488.4085388183594	1585.334594726562	817.9598999023438	479.7297668457031	1512.096313476562	752.3984985351562	476.2163391113281	1217.104614257812	730.49560546875	516.9262084960938	1215.492431640625	817.9889526367188	337.0514831542969	979.6907348632812	794.5841064453125	396.6406555175781	959.9221801757812	740.0257568359375	446.14111328125	1144.593139648438	724.894287109375	316.2647094726562	786.1632080078125	823.216552734375	304.5038452148438	871.6162719726562	801.1045532226562	356.4751586914062	861.7424926757812	749.5442504882812	554.5077514648438	1778.98291015625	908.816162109375	430.6998596191406	1846.219848632812	1079.428955078125	395.2470397949219	1848.193481445312	954.0891723632812	596.8543090820312	1782.003295898438	1036.379516601562	553.654296875	1043.81640625	1153.028198242188	389.5770874023438	1033.509399414062	831.616455078125	334.4551696777344	1108.7099609375	911.2911376953125	439.4060974121094	1109.78125	1155.160034179688	520.8441162109375	541.4033203125	1130.389404296875	552.3400268554688	688.4446411132812	1147.748291015625	610.259765625	39.63938903808594	1073.347290039062	619.7857666015625	295.9434814453125	1111.757568359375	376.2358703613281	40.52489852905273	1118.985229492188	435.6575927734375	45.53200912475586	1053.41650390625	507.6090087890625	41.20639038085938	1147.17138671875	646.8037719726562	39.03227996826172	988.6727294921875	422.1273498535156	540.967041015625	864.2554321289062	380.5700378417969	821.6317138671875	845.6844482421875	524.6084594726562	30.64272499084473	857.72802734375	443.9506225585938	408.382568359375	847.1936645507812	329.1612243652344	47.18353652954102	991.8264770507812	401.7886962890625	37.65782165527344	1009.626281738281	392.0888671875	41.42476654052734	886.9157104492188	596.092529296875	32.73171234130859	879.7230834960938	
771	7.7	551.5172729492188	1129.855224609375	894.538330078125	601.5775756835938	1131.846557617188	1019.2431640625	583.351318359375	1162.866333007812	956.4849853515625	388.55029296875	1367.489135742188	1037.0400390625	624.9511108398438	1310.591064453125	942.3853149414062	606.7483520507812	1602.894165039062	966.1318359375	429.5033569335938	1501.2490234375	1026.109375	619.0912475585938	1417.650390625	866.161865234375	649.24462890625	1582.117309570312	1058.073852539062	594.04638671875	1571.822265625	1153.582153320312	636.3831176757812	1439.06103515625	1210.825561523438	627.6865234375	1221.3359375	1238.638916015625	660.4857788085938	1205.390014648438	1158.865600585938	502.1262817382812	972.462158203125	1253.734741210938	584.1275024414062	940.2919311523438	1240.396728515625	608.497802734375	1106.665893554688	1252.728271484375	465.9623413085938	780.8267211914062	1243.108154296875	553.1226806640625	867.9588012695312	1256.295166015625	487.0853576660156	884.5000610351562	1273.236083984375	488.3893432617188	1585.3515625	817.6834716796875	479.7411804199219	1512.102905273438	752.1395874023438	476.2106323242188	1217.083251953125	730.2542724609375	516.92041015625	1215.47998046875	817.748779296875	336.6753540039062	979.8873901367188	794.5994262695312	396.2432861328125	960.0122680664062	740.0384521484375	445.9998474121094	1144.58984375	724.7106323242188	315.4515991210938	786.4863891601562	823.3512573242188	303.9536743164062	871.9293212890625	801.2155151367188	355.8729858398438	861.8970947265625	749.6475830078125	554.3833618164062	1778.997802734375	908.58154296875	430.6264343261719	1846.244995117188	1079.219482421875	395.1454467773438	1848.183227539062	953.8682250976562	596.7407836914062	1782.049438476562	1036.1650390625	553.7864379882812	1043.866088867188	1152.814697265625	389.6677856445312	1033.485717773438	831.3932495117188	334.5743408203125	1108.651977539062	911.054443359375	439.5398864746094	1109.819091796875	1154.908569335938	520.794189453125	541.4318237304688	1130.34814453125	552.3544921875	688.4673461914062	1147.624633789062	610.2586669921875	39.63433074951172	1073.333862304688	619.724365234375	295.9346008300781	1111.686767578125	376.2461853027344	40.5317268371582	1118.988891601562	435.6631469726562	45.53083419799805	1053.414794921875	507.6016845703125	41.21207046508789	1147.15673828125	646.8026123046875	39.0341796875	988.6701049804688	422.1906127929688	540.9717407226562	864.0780029296875	380.65869140625	821.5827026367188	845.531494140625	524.6104736328125	30.62292098999023	857.7174682617188	443.958251953125	408.3270568847656	847.060791015625	329.171875	47.20123672485352	991.8112182617188	401.8034973144531	37.68656539916992	1009.617492675781	392.0957946777344	41.42670059204102	886.9087524414062	596.0990600585938	32.71011352539062	879.7036743164062	
